<?xml version="1.0" standalone="no"?>
<!DOCTYPE svg PUBLIC "-//W3C//DTD SVG 20010904//EN"
 "http://www.w3.org/TR/2001/REC-SVG-20010904/DTD/svg10.dtd">
<svg version="1.0" xmlns="http://www.w3.org/2000/svg"
 width="625.000000pt" height="623.000000pt" viewBox="0 0 625.000000 623.000000"
 preserveAspectRatio="xMidYMid meet">

<g transform="translate(0.000000,623.000000) scale(0.100000,-0.100000)"
fill="#000000" stroke="none">
<path d="M1260 3610 l0 -110 655 0 655 0 0 110 0 110 -655 0 -655 0 0 -110z"/>
<path d="M1610 3313 c-48 -7 -145 -46 -186 -74 -196 -134 -225 -430 -60 -607
135 -144 384 -173 595 -69 l66 32 3 168 2 167 -115 0 -115 0 0 -99 c0 -109 4
-102 -66 -116 -44 -8 -116 12 -149 42 -38 36 -65 99 -64 153 1 117 71 190 182
190 65 0 108 -15 152 -53 l31 -25 79 70 c44 38 81 73 83 77 5 15 -71 74 -133
102 -90 43 -204 58 -305 42z"/>
<path d="M2806 3125 c-22 -8 -52 -23 -68 -35 l-28 -21 0 31 0 30 -120 0 -120
0 0 -305 0 -305 125 0 125 0 0 150 c0 214 19 250 132 250 l58 0 0 110 0 110
-32 0 c-18 -1 -51 -7 -72 -15z"/>
<path d="M3187 3129 c-186 -44 -292 -237 -227 -412 29 -76 79 -130 158 -169
63 -31 72 -33 177 -33 98 0 116 3 166 26 140 66 210 203 180 351 -23 110 -104
192 -223 230 -63 19 -166 22 -231 7z m177 -220 c21 -24 26 -41 26 -83 0 -87
-56 -139 -127 -115 -41 13 -63 52 -63 114 0 79 30 114 97 115 34 0 46 -5 67
-31z"/>
<path d="M3891 3129 c-78 -15 -158 -74 -180 -132 -30 -79 -4 -163 64 -206 42
-27 69 -34 210 -56 59 -9 72 -19 55 -41 -21 -24 -156 -15 -228 16 -29 13 -54
21 -55 19 -5 -6 -67 -158 -67 -163 0 -2 33 -14 73 -27 61 -20 92 -24 202 -24
115 0 136 3 180 23 115 53 162 149 121 245 -29 68 -85 99 -227 122 -51 8 -97
19 -103 25 -33 33 87 51 174 25 30 -9 61 -17 69 -18 8 -1 26 28 47 75 32 76
33 78 13 89 -62 33 -247 48 -348 28z"/>
<path d="M4558 3126 c-138 -37 -231 -159 -231 -301 0 -111 49 -199 144 -260
121 -78 344 -73 453 10 l37 28 -67 68 -66 67 -32 -18 c-68 -40 -151 -33 -196
15 l-23 25 210 0 211 0 5 29 c7 36 -6 125 -26 172 -57 138 -245 212 -419 165z
m161 -170 c15 -8 32 -26 39 -40 l12 -26 -95 0 c-99 0 -109 5 -81 42 27 36 81
46 125 24z"/>
</g>
</svg>
